<svg preserveAspectRatio="xMidYMid meet" width="100%" height="100%" overflow="visible" style="display: block;" viewBox="0 0 78.3728 25.8583" fill="none" xmlns="http://www.w3.org/2000/svg">
<g id="Text">
<path id="Vector" d="M51.1373 25.709H46.925L34.2514 6.53806V25.709H30.0392V0H34.2514L46.925 19.134V0H51.1373V25.709Z" fill="var(--fill-0, white)"/>
<path id="Vector_2" d="M25.5687 0V25.709H21.377V0H25.5687Z" fill="var(--fill-0, white)"/>
<path id="Vector_3" d="M4.98334 22.0468H16.9064V25.709H0V22.4167L11.8862 3.66214H0V0H16.9064V3.29223L4.98334 22.0468Z" fill="var(--fill-0, white)"/>
<path id="Subtract" fill-rule="evenodd" clip-rule="evenodd" d="M78.3728 20.4024C76.0458 23.7026 72.2042 25.8583 67.8591 25.8583C60.7591 25.8583 55.0034 20.1026 55.0034 13.0027C55.0034 5.9027 60.7591 0.147045 67.8591 0.147045C71.8234 0.147045 75.3687 1.94149 77.7269 4.76245L74.8504 7.16467C73.2136 5.01064 70.6906 3.63013 67.8602 3.63013C62.9263 3.63013 58.9266 7.82493 58.9266 12.9995C58.9266 18.174 62.9263 22.3688 67.8602 22.3688C70.9496 22.3688 73.6728 20.7241 75.277 18.224L78.3728 20.4024Z" fill="var(--fill-0, white)"/>
</g>
</svg>
