<svg preserveAspectRatio="xMidYMid meet" width="100%" height="100%" overflow="visible" style="display: block;" viewBox="0 0 74.6312 32.7334" fill="none" xmlns="http://www.w3.org/2000/svg">
<g id="Group 2147230776">
<path id="Vector" d="M14.8345 26.0798H19.5749C19.4373 26.4532 19.3247 26.7893 19.1872 27.1005C18.4992 28.8433 17.286 30.3121 15.6975 31.3204C14.5593 32.0424 13.246 32.4781 11.9077 32.5901C11.4074 32.6275 10.2817 32.7146 9.53126 32.6648C6.76707 32.503 4.34059 31.5818 2.47695 29.4657C1.28872 28.0964 0.500744 26.4283 0.225576 24.6358C0.0629764 23.7147 -0.0370848 22.7562 0.0129458 21.8226C0.15053 18.3371 1.43882 15.4118 4.37811 13.3579C5.59135 12.5239 6.99221 11.9762 8.4556 11.777C9.94401 11.5654 11.4324 11.5778 12.8833 11.9637C15.585 12.6359 17.8113 14.5405 18.887 17.1172C19.7375 19.0342 20.1127 21.1379 19.9751 23.2292C19.9626 23.3039 19.9626 23.3786 19.9501 23.4408H5.41625C5.42875 23.8392 5.46628 24.1752 5.49129 24.474C5.59135 25.2582 5.84151 25.9429 6.24175 26.6151C6.76707 27.5238 7.66762 28.1711 8.69325 28.3951C10.5069 28.8308 12.1954 28.6441 13.7213 27.474C14.2091 27.1254 14.5843 26.64 14.8345 26.0798ZM14.4968 20.0052C14.3967 19.196 14.1591 18.4243 13.7713 17.7023C13.3336 16.8558 12.5706 16.2085 11.645 15.9222C11.0697 15.723 10.4818 15.7355 9.88147 15.7355C7.81771 15.6608 6.01661 17.0799 5.57884 19.084C5.5038 19.3828 5.47878 19.6815 5.42875 20.0052C5.44126 20.0052 14.4968 20.0052 14.4968 20.0052ZM36.1225 4.60693H41.5383V32.1171H36.4102V29.4906C36.3852 29.391 36.3101 29.5528 36.16 29.7893C35.3345 31.1337 33.9837 32.0922 32.4327 32.4283C29.5685 33.0756 26.9169 32.6773 24.628 30.7354C23.2646 29.5279 22.2891 27.9595 21.7887 26.2043C21.2384 24.3869 21.0508 22.4823 21.2509 20.6027C21.451 18.3371 22.1765 16.221 23.7024 14.4533C24.8281 13.1089 26.379 12.2002 28.0926 11.8641C29.8687 11.4534 31.7198 11.6401 33.3833 12.3745C34.3089 12.7977 35.1094 13.4201 35.7473 14.2044L36.11 14.6276V4.58203L36.1225 4.60693ZM31.5197 28.669C34.9093 28.669 36.3852 25.781 36.3852 22.2209C36.3852 18.6608 35.0969 15.7728 31.5197 15.7728C27.955 15.7728 26.6417 18.6608 26.6417 22.2209C26.6417 25.781 28.1301 28.669 31.5197 28.669ZM44.6277 4.60693H50.056V14.6525L50.4187 14.2293C51.0441 13.445 51.8571 12.8102 52.7827 12.3994C54.4462 11.665 56.2973 11.4782 58.0734 11.889C59.787 12.2251 61.3379 13.1463 62.4511 14.4782C63.902 16.2085 64.765 18.362 64.9026 20.6276C65.1027 22.5072 64.9276 24.4118 64.3773 26.2292C63.8895 27.9719 62.9014 29.5404 61.5505 30.7478C59.2616 32.6897 56.5975 33.1005 53.7458 32.4408C52.1948 32.1047 50.844 31.1586 50.0185 29.8018C49.8684 29.5653 49.7933 29.4034 49.7683 29.503V32.142H44.6277V4.60693ZM49.7933 22.2209C49.7933 25.781 51.2818 28.669 54.6713 28.669C58.0609 28.669 59.5368 25.781 59.5368 22.2209C59.5368 18.6608 58.2485 15.7728 54.6713 15.7728C51.0941 15.7728 49.7933 18.6608 49.7933 22.2209ZM70.0057 13.084C69.0926 13.084 68.1921 12.9347 67.3416 12.6359H67.304V32.1171H72.6698V12.6235H72.6448C71.8068 12.9222 70.9062 13.084 70.0057 13.084Z" fill="var(--fill-0, black)"/>
<path id="Vector_2" d="M69.6104 0.0048982C66.7248 -0.119044 64.285 2.12431 64.1611 5.01217C64.0373 7.90003 66.2789 10.3417 69.1646 10.4656C69.3132 10.478 69.4618 10.478 69.6228 10.4656C72.5085 10.3417 74.7501 7.90003 74.6263 5.01217C74.4901 2.28544 72.3227 0.116446 69.6104 0.0048982Z" fill="var(--fill-0, black)"/>
</g>
</svg>
