<svg preserveAspectRatio="none" width="100%" height="100%" overflow="visible" style="display: block;" viewBox="0 0 270.532 35.5068" fill="none" xmlns="http://www.w3.org/2000/svg">
<g id="Group 2147230775">
<path id="Union" d="M8.65137 7.86719C10.2992 7.86719 11.685 8.2422 12.8086 8.99121C13.957 9.74019 14.8183 10.6015 15.3926 11.5752H15.5801V8.4668H17.9023V26.2188C17.9023 27.7667 17.6648 29.1152 17.1904 30.2637C16.741 31.4371 16.1041 32.4106 15.2803 33.1846C14.4814 33.9584 13.5329 34.5327 12.4346 34.9072C11.3361 35.3067 10.1623 35.5068 8.91406 35.5068C7.7156 35.5068 6.66643 35.3441 5.76758 35.0195C4.86887 34.695 4.08226 34.2835 3.4082 33.7842C2.75916 33.2849 2.22226 32.7106 1.79785 32.0615C1.37343 31.4374 1.04892 30.8126 0.824219 30.1885L3.07129 29.29C3.47075 30.5382 4.19479 31.5241 5.24316 32.248C6.29182 32.9721 7.51585 33.335 8.91406 33.335C11.111 33.3349 12.771 32.685 13.8945 31.3867C15.0179 30.1134 15.58 28.3411 15.5801 26.0693V23.6719H15.3926C14.8183 24.6456 13.9571 25.52 12.8086 26.2939C11.6851 27.0429 10.2992 27.417 8.65137 27.417C7.47801 27.417 6.36691 27.1803 5.31836 26.7061C4.29469 26.2067 3.38295 25.5194 2.58398 24.6455C1.78514 23.7717 1.14816 22.7354 0.673828 21.5371C0.224526 20.3388 4.19971e-05 19.0405 0 17.6426C1.71013e-05 16.2444 0.224424 14.9455 0.673828 13.7471C1.14819 12.5487 1.78509 11.5125 2.58398 10.6387C3.38294 9.76483 4.2947 9.09059 5.31836 8.61621C6.36694 8.11692 7.47797 7.8672 8.65137 7.86719ZM40.9072 7.86719C42.2552 7.86723 43.4909 8.11701 44.6143 8.61621C45.7626 9.11551 46.7494 9.80205 47.5732 10.6758C48.3971 11.5495 49.034 12.5859 49.4834 13.7842C49.9578 14.9576 50.1953 16.2444 50.1953 17.6426C50.1953 19.0406 49.9577 20.3388 49.4834 21.5371C49.034 22.7106 48.3972 23.7345 47.5732 24.6084C46.7493 25.4822 45.7627 26.1686 44.6143 26.668C43.4909 27.1672 42.2553 27.417 40.9072 27.417C39.5839 27.417 38.3477 27.1673 37.1992 26.668C36.0758 26.1687 35.1022 25.4821 34.2783 24.6084C33.4544 23.7345 32.8045 22.7106 32.3301 21.5371C31.8808 20.3388 31.6563 19.0405 31.6562 17.6426C31.6563 16.2444 31.8807 14.9576 32.3301 13.7842C32.8045 12.5859 33.4545 11.5496 34.2783 10.6758C35.1022 9.80212 36.0759 9.11548 37.1992 8.61621C38.3477 8.11688 39.584 7.86719 40.9072 7.86719ZM85.2129 7.86719C86.4362 7.86719 87.5351 8.05429 88.5088 8.42871C89.4825 8.77825 90.3195 9.29074 91.0186 9.96484C91.7175 10.6139 92.2544 11.4006 92.6289 12.3242C93.0033 13.2229 93.1904 14.2341 93.1904 15.3574V26.8184H90.8682V23.5596H90.7188C90.0946 24.6332 89.2202 25.5449 88.0967 26.2939C86.9982 27.0428 85.7122 27.417 84.2393 27.417C83.2406 27.417 82.3166 27.2552 81.4678 26.9307C80.619 26.6311 79.8829 26.2185 79.2588 25.6943C78.6347 25.1451 78.1474 24.496 77.7979 23.7471C77.4483 22.9981 77.2734 22.1863 77.2734 21.3125C77.2735 20.3138 77.4736 19.4273 77.873 18.6533C78.2974 17.8796 78.8588 17.2303 79.5576 16.7061C80.2817 16.1818 81.1065 15.7946 82.0303 15.5449C82.9789 15.2704 83.9779 15.1328 85.0264 15.1328C86.2745 15.1328 87.3979 15.2825 88.3965 15.582C89.3949 15.8566 90.2191 16.1813 90.8682 16.5557V15.4326C90.8681 14.6088 90.7185 13.8596 90.4189 13.1855C90.1194 12.5115 89.72 11.9372 89.2207 11.4629C88.7214 10.9885 88.1219 10.6266 87.4229 10.377C86.7487 10.1273 86.0371 10.002 85.2881 10.002C84.1646 10.002 83.1658 10.2517 82.292 10.751C81.4182 11.2253 80.6944 11.9249 80.1201 12.8486L78.0225 11.5371C78.7465 10.4137 79.7332 9.52703 80.9814 8.87793C82.2296 8.20401 83.6402 7.86724 85.2129 7.86719ZM202.146 19.5508C202.147 21.498 202.571 22.9336 203.42 23.8574C204.294 24.7812 205.518 25.2432 207.091 25.2432C207.964 25.2431 208.763 25.0439 209.487 24.6445C210.236 24.2451 210.873 23.7204 211.397 23.0713C211.922 22.4221 212.334 21.6731 212.634 20.8242C212.933 19.9505 213.083 19.0516 213.083 18.1279V8.46484H215.479V26.8164H213.232V23.3711H213.083C212.783 23.9202 212.421 24.4442 211.997 24.9434C211.573 25.4177 211.073 25.8423 210.499 26.2168C209.95 26.5913 209.325 26.8784 208.626 27.0781C207.952 27.3028 207.228 27.416 206.454 27.416C205.331 27.416 204.344 27.228 203.495 26.8535C202.646 26.504 201.947 26.0046 201.397 25.3555C200.848 24.6814 200.437 23.8948 200.162 22.9961C199.888 22.0724 199.75 21.0613 199.75 19.9629V8.46484H202.146V19.5508ZM57.5996 9.10059L57.4502 11.6475H57.5996C57.8992 11.1481 58.2621 10.674 58.6865 10.2246C59.1109 9.75028 59.6104 9.33779 60.1846 8.98828C60.7587 8.63885 61.408 8.36474 62.1318 8.16504C62.8558 7.96533 63.6546 7.86526 64.5283 7.86523C65.7018 7.86523 66.8137 8.11492 67.8623 8.61426C68.9108 9.08863 69.8218 9.76299 70.5957 10.6367C71.3946 11.4855 72.0193 12.5088 72.4688 13.707C72.9431 14.9054 73.1796 16.2166 73.1797 17.6396C73.1797 19.0627 72.9431 20.3739 72.4688 21.5723C72.0193 22.7707 71.3946 23.8068 70.5957 24.6807C69.8218 25.5295 68.9108 26.2038 67.8623 26.7031C66.8136 27.1775 65.7018 27.415 64.5283 27.415C63.6546 27.415 62.8558 27.3028 62.1318 27.0781C61.4079 26.8784 60.7588 26.6034 60.1846 26.2539C59.6105 25.9044 59.1109 25.505 58.6865 25.0557C58.2621 24.5813 57.8992 24.0941 57.5996 23.5947H57.4502V26.8154H55.2031V0H57.5996V9.10059ZM150.539 7.86328C151.862 7.86334 153.048 8.10086 154.097 8.5752C155.17 9.02458 156.081 9.6737 156.83 10.5225C157.579 11.3464 158.154 12.3451 158.554 13.5186C158.978 14.6919 159.19 15.9901 159.19 17.4131V17.6387C159.166 17.7133 159.152 17.7754 159.152 17.8252V18.0498H144.06C144.085 19.3232 144.309 20.4098 144.733 21.3086C145.158 22.2074 145.695 22.9565 146.344 23.5557C146.993 24.1299 147.718 24.5545 148.517 24.8291C149.315 25.1036 150.089 25.2412 150.838 25.2412C152.386 25.2412 153.61 24.8915 154.509 24.1924C155.408 23.4683 156.157 22.5565 156.756 21.458L158.815 22.4697C158.491 23.1438 158.079 23.7807 157.58 24.3799C157.081 24.9791 156.493 25.5037 155.819 25.9531C155.17 26.4025 154.421 26.7513 153.572 27.001C152.723 27.2756 151.787 27.4131 150.764 27.4131C149.44 27.4131 148.216 27.1765 147.093 26.7021C145.969 26.2028 144.996 25.5155 144.172 24.6416C143.373 23.7677 142.748 22.7438 142.299 21.5703C141.85 20.3721 141.625 19.0615 141.625 17.6387C141.625 16.3155 141.825 15.067 142.225 13.8936C142.649 12.6951 143.247 11.6581 144.021 10.7842C144.795 9.88533 145.732 9.17374 146.831 8.64941C147.93 8.12518 149.166 7.86328 150.539 7.86328ZM242.891 7.86328C244.214 7.86334 245.4 8.10086 246.448 8.5752C247.522 9.02458 248.433 9.6737 249.182 10.5225C249.931 11.3464 250.506 12.3451 250.905 13.5186C251.33 14.6919 251.542 15.9901 251.542 17.4131V17.6387C251.517 17.7133 251.504 17.7754 251.504 17.8252V18.0498H236.411C236.436 19.3232 236.661 20.4098 237.085 21.3086C237.509 22.2074 238.046 22.9565 238.695 23.5557C239.344 24.1299 240.069 24.5545 240.868 24.8291C241.667 25.1036 242.441 25.2412 243.189 25.2412C244.737 25.2412 245.962 24.8915 246.86 24.1924C247.759 23.4683 248.508 22.5565 249.107 21.458L251.167 22.4697C250.842 23.1438 250.431 23.7807 249.932 24.3799C249.432 24.9791 248.845 25.5037 248.171 25.9531C247.522 26.4024 246.773 26.7513 245.924 27.001C245.075 27.2756 244.139 27.4131 243.115 27.4131C241.792 27.4131 240.568 27.1765 239.444 26.7021C238.321 26.2028 237.347 25.5155 236.523 24.6416C235.724 23.7677 235.1 22.7438 234.65 21.5703C234.201 20.3721 233.977 19.0615 233.977 17.6387C233.977 16.3155 234.177 15.067 234.576 13.8936C235.001 12.6951 235.599 11.6581 236.373 10.7842C237.147 9.88533 238.084 9.17374 239.183 8.64941C240.281 8.12518 241.518 7.86328 242.891 7.86328ZM263.192 7.86328C263.966 7.86332 264.716 7.96338 265.439 8.16309C266.163 8.33784 266.825 8.5998 267.424 8.94922C268.048 9.29877 268.598 9.74855 269.072 10.2979C269.547 10.8221 269.921 11.4339 270.195 12.1328L268.099 12.9941C267.599 11.9455 266.912 11.1844 266.038 10.71C265.189 10.2356 264.203 9.99805 263.079 9.99805C262.53 9.99809 261.981 10.0729 261.432 10.2227C260.907 10.3475 260.433 10.5476 260.009 10.8223C259.584 11.0719 259.235 11.3964 258.96 11.7959C258.71 12.1704 258.585 12.595 258.585 13.0693C258.585 13.8432 258.91 14.4428 259.559 14.8672C260.233 15.2916 261.17 15.6535 262.368 15.9531L265.064 16.627C266.937 17.1013 268.311 17.7877 269.185 18.6865C270.083 19.5604 270.532 20.5974 270.532 21.7959C270.532 22.5697 270.357 23.2938 270.008 23.9678C269.683 24.6418 269.197 25.2414 268.548 25.7656C267.924 26.265 267.162 26.6643 266.263 26.9639C265.389 27.2634 264.415 27.4131 263.342 27.4131C262.343 27.4131 261.419 27.2635 260.57 26.9639C259.746 26.6892 259.01 26.3142 258.36 25.8398C257.736 25.3406 257.187 24.7792 256.713 24.1553C256.264 23.5062 255.914 22.8318 255.664 22.1328L257.799 21.2334C258.298 22.5567 259.047 23.5685 260.046 24.2676C261.07 24.9417 262.168 25.2783 263.342 25.2783C264.815 25.2783 265.976 24.9538 266.825 24.3047C267.674 23.6556 268.099 22.8812 268.099 21.9824C268.099 21.608 268.036 21.2581 267.911 20.9336C267.786 20.6091 267.561 20.3097 267.236 20.0352C266.912 19.7356 266.475 19.4737 265.926 19.249C265.377 18.9994 264.678 18.7739 263.829 18.5742L261.282 17.9756C260.708 17.8258 260.109 17.6378 259.484 17.4131C258.885 17.1634 258.335 16.8521 257.836 16.4775C257.337 16.0781 256.925 15.603 256.601 15.0537C256.301 14.5045 256.151 13.8675 256.151 13.1436C256.151 12.2948 256.338 11.5455 256.713 10.8965C257.112 10.2475 257.637 9.69836 258.286 9.24902C258.96 8.79971 259.722 8.46296 260.57 8.23828C261.419 7.9886 262.294 7.86328 263.192 7.86328ZM189.824 8.46191H194.394V10.6338H189.824V21.6826C189.824 22.756 190.086 23.5548 190.61 24.0791C191.11 24.6284 191.709 24.9033 192.408 24.9033C192.783 24.9033 193.095 24.8781 193.345 24.8281C193.619 24.7532 193.919 24.6409 194.243 24.4912L194.992 26.5508C194.568 26.7505 194.131 26.888 193.682 26.9629C193.257 27.0628 192.745 27.1123 192.146 27.1123C190.848 27.1122 189.749 26.7006 188.851 25.877C188.401 25.4525 188.051 24.9401 187.802 24.3408C187.552 23.7167 187.427 22.9675 187.427 22.0938V10.6338H184.094V8.46191H187.427V2.84375H189.824V8.46191ZM130.137 24.1201H130.212L136.504 8.46484H139.014L131.448 26.8164H128.826L121.336 8.46484H123.883L130.137 24.1201ZM26.6465 26.8154H24.25V0H26.6465V26.8154ZM101.615 26.8154H99.2188V0H101.615V26.8154ZM173.395 7.86328C174.518 7.86328 175.505 8.0503 176.354 8.4248C177.202 8.77436 177.902 9.2868 178.451 9.96094C179.025 10.61 179.45 11.3967 179.725 12.3203C179.999 13.2191 180.136 14.2179 180.136 15.3164V26.8145H177.739V15.7285C177.739 13.756 177.303 12.3197 176.429 11.4209C175.555 10.4971 174.331 10.0352 172.758 10.0352C171.884 10.0352 171.085 10.2354 170.361 10.6348C169.637 11.0093 169.013 11.5339 168.488 12.208C167.964 12.8571 167.553 13.6063 167.253 14.4551C166.953 15.304 166.803 16.1905 166.803 17.1143V26.8145H164.406V8.46289H166.653V11.9082H166.803C167.102 11.3589 167.465 10.8474 167.89 10.373C168.314 9.87372 168.8 9.43603 169.35 9.06152C169.924 8.687 170.549 8.39994 171.223 8.2002C171.897 7.97554 172.621 7.8633 173.395 7.86328ZM229.453 7.9375C230.027 7.93752 230.502 7.97492 230.876 8.0498C231.25 8.12471 231.612 8.25004 231.962 8.4248L231.213 10.6719C230.714 10.4222 230.027 10.2969 229.153 10.2969C228.504 10.2969 227.88 10.4596 227.28 10.7842C226.681 11.0838 226.156 11.5084 225.707 12.0576C225.258 12.6068 224.896 13.2682 224.621 14.042C224.346 14.7909 224.209 15.615 224.209 16.5137V26.8135H221.812V8.46191H224.06V11.6826H224.209C224.384 11.1333 224.659 10.634 225.033 10.1846C225.433 9.71031 225.87 9.31087 226.344 8.98633C226.843 8.63678 227.356 8.374 227.88 8.19922C228.429 8.0245 228.954 7.9375 229.453 7.9375ZM85.4004 17.1182C84.5767 17.1182 83.8152 17.2173 83.1162 17.417C82.4421 17.6167 81.8427 17.9048 81.3184 18.2793C80.8191 18.6288 80.4197 19.0656 80.1201 19.5898C79.8455 20.114 79.7081 20.7006 79.708 21.3496C79.708 21.9488 79.8324 22.4987 80.082 22.998C80.3567 23.4724 80.7196 23.8839 81.1689 24.2334C81.6183 24.5579 82.1178 24.8208 82.667 25.0205C83.2411 25.1952 83.8277 25.2822 84.4268 25.2822C85.2506 25.2822 86.0493 25.1073 86.8232 24.7578C87.5972 24.4083 88.2846 23.9342 88.8838 23.335C89.4829 22.7108 89.9571 21.9991 90.3066 21.2002C90.6811 20.4013 90.8682 19.5521 90.8682 18.6533C90.1192 18.204 89.2952 17.842 88.3965 17.5674C87.5227 17.2678 86.5239 17.1182 85.4004 17.1182ZM8.98828 10.0391C8.13948 10.0391 7.31548 10.214 6.5166 10.5635C5.74262 10.913 5.04313 11.4124 4.41895 12.0615C3.81976 12.7107 3.33349 13.5103 2.95898 14.459C2.58451 15.3827 2.3965 16.4442 2.39648 17.6426C2.39653 18.8158 2.58461 19.8766 2.95898 20.8252C3.33346 21.7739 3.81981 22.5735 4.41895 23.2227C5.04312 23.8718 5.74263 24.3712 6.5166 24.7207C7.31551 25.0702 8.13945 25.2451 8.98828 25.2451C9.83711 25.2451 10.6611 25.0823 11.46 24.7578C12.2839 24.4083 12.9955 23.9089 13.5947 23.2598C14.2189 22.6106 14.7183 21.8242 15.0928 20.9004C15.4672 19.9517 15.6552 18.8658 15.6553 17.6426C15.6553 16.4192 15.4673 15.3447 15.0928 14.4209C14.7183 13.4724 14.2188 12.6734 13.5947 12.0244C12.9955 11.3754 12.2838 10.888 11.46 10.5635C10.6611 10.2141 9.83703 10.0391 8.98828 10.0391ZM40.9072 10.0391C40.0084 10.0391 39.1462 10.2271 38.3223 10.6016C37.4986 10.9511 36.7623 11.4628 36.1133 12.1367C35.4892 12.7857 34.9897 13.5847 34.6152 14.5332C34.2407 15.457 34.0528 16.4941 34.0527 17.6426C34.0528 18.7909 34.2408 19.8394 34.6152 20.7881C34.9897 21.7119 35.4891 22.5114 36.1133 23.1855C36.7623 23.8344 37.4986 24.3463 38.3223 24.7207C39.1462 25.0703 40.0084 25.2451 40.9072 25.2451C41.806 25.2451 42.6674 25.0702 43.4912 24.7207C44.315 24.3463 45.039 23.8345 45.6631 23.1855C46.3122 22.5114 46.8247 21.7119 47.1992 20.7881C47.5986 19.8395 47.7978 18.7908 47.7979 17.6426C47.7978 16.4941 47.5987 15.457 47.1992 14.5332C46.8247 13.5846 46.3122 12.7858 45.6631 12.1367C45.039 11.4627 44.315 10.9511 43.4912 10.6016C42.6674 10.2271 41.8059 10.0391 40.9072 10.0391ZM64.1172 10.0371C63.2434 10.0371 62.3942 10.2121 61.5703 10.5615C60.7714 10.8861 60.0597 11.3733 59.4355 12.0225C58.8364 12.6716 58.3491 13.4703 57.9746 14.4189C57.6251 15.3676 57.4502 16.4414 57.4502 17.6396C57.4502 18.8379 57.6252 19.9117 57.9746 20.8604C58.3491 21.7841 58.8363 22.5837 59.4355 23.2578C60.0597 23.9069 60.7714 24.4063 61.5703 24.7559C62.3942 25.0804 63.2434 25.2432 64.1172 25.2432C64.9908 25.2431 65.8272 25.0682 66.626 24.7188C67.4498 24.3692 68.1616 23.8697 68.7607 23.2207C69.3849 22.5715 69.8721 21.772 70.2217 20.8232C70.5961 19.8745 70.7832 18.813 70.7832 17.6396C70.7832 16.4664 70.5961 15.4178 70.2217 14.4941C69.8721 13.5454 69.3849 12.7458 68.7607 12.0967C68.1616 11.4227 67.4498 10.911 66.626 10.5615C65.8272 10.2121 64.9909 10.0372 64.1172 10.0371ZM150.464 10.0352C149.715 10.0352 148.99 10.1726 148.291 10.4473C147.592 10.6969 146.956 11.0721 146.382 11.5713C145.833 12.0706 145.357 12.6944 144.958 13.4434C144.583 14.1924 144.334 15.0546 144.209 16.0283H156.681C156.656 15.4291 156.531 14.7792 156.307 14.0801C156.082 13.3811 155.732 12.732 155.258 12.1328C154.783 11.5336 154.147 11.0342 153.348 10.6348C152.574 10.2353 151.612 10.0352 150.464 10.0352ZM242.815 10.0352C242.066 10.0352 241.342 10.1726 240.643 10.4473C239.944 10.6969 239.308 11.0721 238.733 11.5713C238.184 12.0706 237.709 12.6944 237.31 13.4434C236.935 14.1924 236.685 15.0546 236.561 16.0283H249.032C249.007 15.4291 248.883 14.7792 248.658 14.0801C248.434 13.3811 248.084 12.732 247.609 12.1328C247.135 11.5336 246.498 11.0342 245.699 10.6348C244.925 10.2353 243.964 10.0352 242.815 10.0352Z" fill="var(--fill-0, black)"/>
<circle id="Ellipse 13956" cx="114.539" cy="22.41" r="4.40613" fill="var(--fill-0, black)"/>
</g>
</svg>
