<svg preserveAspectRatio="xMidYMid meet" width="100%" height="100%" overflow="visible" style="display: block;" viewBox="0 0 107.368 21.6045" fill="none" xmlns="http://www.w3.org/2000/svg">
<g id="Frame" clip-path="url(#clip0_0_54)">
<path id="Vector" d="M24.6641 13.1695V0.296875H29.0979V13.1695C29.0979 15.5105 30.7758 17.2506 32.9927 17.2506C35.2096 17.2506 36.8579 15.5105 36.8579 13.1695V0.296875H41.2917V13.1695C41.2917 18.0002 37.7562 21.5712 32.9927 21.5712C28.198 21.5712 24.6641 18.0002 24.6641 13.1695Z" fill="var(--fill-0, black)"/>
<path id="Vector_2" d="M65.4753 10.8023C65.4753 16.9537 60.862 21.6045 54.7502 21.6045C48.6385 21.6045 44.0547 16.9537 44.0547 10.8023C44.0547 4.65078 48.6385 0 54.7502 0C60.862 0 65.4753 4.65078 65.4753 10.8023ZM48.6088 10.8023C48.6088 14.4938 51.246 17.284 54.7502 17.284C58.2561 17.284 60.8917 14.4938 60.8917 10.8023C60.8917 7.11078 58.2561 4.32059 54.7502 4.32059C51.246 4.32059 48.6088 7.11235 48.6088 10.8023Z" fill="var(--fill-0, black)"/>
<path id="Vector_3" d="M72.0171 0.296875L80.5548 12.5404V0.296875H84.989V21.3021H81.2737L72.6764 9.05857V21.3021H68.2422V0.296875H72.0171Z" fill="var(--fill-0, black)"/>
<path id="Vector_4" d="M101.225 17.7905H93.1372L91.7885 21.3005H87.0859L95.4135 0.296875H99.0084L107.367 21.3021H102.544L101.225 17.7905ZM99.758 13.9801L97.2113 7.25898L94.6056 13.9801H99.758Z" fill="var(--fill-0, black)"/>
<path id="Vector_5" d="M23.2722 21.3057L14.0592 11.5675H9.09577L13.7264 16.4937C12.8422 17.0007 11.8141 17.284 10.6956 17.284C7.1913 17.284 4.55413 14.4938 4.55413 10.8023C4.55413 7.11078 7.1913 4.32059 10.6956 4.32059C14.2014 4.32059 16.837 7.11078 16.837 10.8023C16.837 11.9008 16.5995 12.9164 16.1792 13.8052C17.6463 13.8052 19.6835 13.8052 21.0303 13.8052C21.2833 12.8585 21.4208 11.8523 21.4208 10.8023C21.4193 4.65078 16.8073 0 10.6956 0C4.58381 0 0 4.65078 0 10.8023C0 16.9537 4.58381 21.6045 10.6956 21.6045C13.0062 21.6045 15.0997 20.9364 16.812 19.7768L18.2478 21.3057H23.2722Z" fill="var(--fill-0, black)"/>
</g>
<defs>
<clipPath id="clip0_0_54">
<rect width="107.368" height="21.6045" fill="white"/>
</clipPath>
</defs>
</svg>
