<svg preserveAspectRatio="none" width="100%" height="100%" overflow="visible" style="display: block;" viewBox="0 0 104.749 21.6058" fill="none" xmlns="http://www.w3.org/2000/svg">
<g id="Group 2147230774">
<path id="Vector" fill-rule="evenodd" clip-rule="evenodd" d="M6.83753 0.332112C5.69724 0.679646 4.8464 1.16866 3.92099 2.00886L3.27801 2.59234V1.52281V0.453281H1.639H0L0.0607892 10.7789L0.12158 21.1045H1.75825H3.39491L3.51182 13.9165C3.62452 6.98615 3.6479 6.69361 4.16111 5.75575C5.81578 2.73222 10.2923 2.07138 12.7658 4.48541C14.0847 5.77263 14.1403 6.12222 14.2671 13.9165L14.384 21.1045H16.0206H17.6573L17.723 14.9434C17.8205 5.80321 17.4822 4.079 15.1635 1.89476C13.7314 0.545698 12.1448 -0.00675124 9.75757 0.0121886C8.70146 0.0206316 7.38745 0.16462 6.83753 0.332112ZM29.3447 0.395093C24.1754 2.19369 21.1046 7.2027 21.9433 12.468C22.3295 14.893 23.3316 16.7689 25.1509 18.4742C29.29 22.3532 35.4462 22.6576 40.1014 19.2133C40.7437 18.738 41.2931 18.1992 41.3226 18.0155C41.3518 17.8318 40.966 17.2278 40.465 16.6731L39.554 15.6642L38.6702 16.4218C36.5398 18.2474 33.1659 18.9646 30.5718 18.1431C28.0515 17.3451 26.0924 15.2793 25.5271 12.8237L25.3059 11.8628H33.6838H42.0616L42.223 10.8129C42.8592 6.67353 40.753 2.66536 36.9927 0.858547C35.5863 0.182875 35.2199 0.109169 32.9809 0.0512086C31.0803 0.00191945 30.2489 0.0804179 29.3447 0.395093ZM94.67 0.299479C91.8872 1.31128 90.4827 3.05579 90.4338 5.5611C90.4008 7.24606 90.8362 8.2736 92.0436 9.35956C93.0256 10.2431 93.8986 10.6974 98.63 12.7865C100.678 13.6911 101.244 14.3063 101.244 15.628C101.244 17.4384 99.8126 18.4822 97.3354 18.4781C95.6307 18.4753 93.9524 17.7447 92.4046 16.3317L91.2748 15.3003L90.1324 16.4326L88.9898 17.5646L90.2655 18.7642C93.0513 21.3836 97.1009 22.2868 100.63 21.0758C102.217 20.5311 103.298 19.6907 104.043 18.4231C104.654 17.383 104.747 16.9985 104.749 15.5015C104.753 12.4429 103.571 11.2567 98.1549 8.88287C94.4404 7.25518 93.9961 6.89647 93.9961 5.52527C93.9961 2.68088 98.3607 2.07184 101.575 4.46761C102.183 4.91988 102.698 5.25281 102.722 5.20717C102.745 5.16154 103.18 4.68941 103.688 4.15796L104.612 3.19157L103.727 2.30642C103.24 1.81946 102.245 1.13169 101.517 0.777995C100.379 0.225546 99.8622 0.124686 97.854 0.063303C96.2999 0.0158394 95.2323 0.0950206 94.67 0.299479ZM68.5109 7.25108C68.5109 14.7941 68.6594 15.8879 69.9493 17.8501C71.2371 19.8086 73.1978 21.0085 75.8462 21.4585C79.7429 22.1209 83.453 20.3186 85.1612 16.9337L85.9297 15.4109L86.0001 7.93223L86.0702 0.453281H84.4394H82.8086L82.7324 7.58424C82.6599 14.3804 82.6328 14.7581 82.1518 15.628C81.1305 17.4749 79.4752 18.4813 77.4616 18.479C75.0725 18.4765 73.2857 17.4462 72.4422 15.5851C72.0522 14.7248 72.0073 13.9225 71.9914 7.54134L71.9741 0.453281H70.2425H68.5109V7.25108ZM35.6314 3.65206C36.2583 3.9608 37.0707 4.56824 37.4369 5.0018C38.1418 5.83652 38.8171 7.48269 38.8171 8.36647V8.89633H32.1535C26.9772 8.89633 25.4904 8.83267 25.4923 8.61109C25.4962 8.11044 26.5643 6.06951 27.2171 5.31488C27.9274 4.49408 29.1168 3.72188 30.3723 3.26687C31.6892 2.7895 34.2636 2.97798 35.6314 3.65206Z" fill="var(--fill-0, black)"/>
<path id="Subtract" d="M48.917 0.915039C50.6601 1.73599 53.7697 3.45654 54.7324 4.13281C55.0254 4.33863 55.3363 4.2244 56.2803 3.5625C57.6136 2.62766 62.418 0.2239 62.9541 0.223633C63.2658 0.223633 64.0693 1.79854 64.0693 2.40918C64.0685 2.53609 63.2011 3.02275 62.1406 3.49121C61.0797 3.95985 59.5467 4.7591 58.7334 5.2666C57.3002 6.16093 57.2652 6.20486 57.6201 6.68652C58.6581 8.09495 59.2312 9.24894 59.334 10.1377C59.4803 11.4058 58.8588 13.2572 57.9463 14.2715C57.5649 14.6955 57.3136 15.1384 57.3877 15.2559C57.5698 15.5436 60.8119 17.375 62.5498 18.1719C63.3213 18.5257 63.9957 18.8423 64.0488 18.875C64.1809 18.9562 63.3042 21.4438 63.1445 21.4424C62.4992 21.4257 57.0635 18.5199 55.3281 17.2637C55.1692 17.1493 54.4256 17.4904 53.4307 18.1357C51.8785 19.1423 47.0312 21.5753 46.9092 21.4092C46.8774 21.3652 46.6334 20.8044 46.3672 20.1621L45.8828 18.9932L48.2539 17.8281C49.5579 17.1879 51.1257 16.3531 51.7383 15.9727L52.8516 15.2803L52.0371 14.125C50.2791 11.6306 50.3474 9.42605 52.2578 6.98145L52.8594 6.21191L51.6914 5.48047C51.0492 5.07833 49.4655 4.24351 48.1719 3.625C46.1602 2.6634 45.8502 2.44261 46.0342 2.10352C46.1526 1.88483 46.4128 1.3228 46.6123 0.853516L46.9756 0L48.917 0.915039ZM55.9502 9.16797C55.2903 8.17485 54.9388 8.00685 54.54 8.49414C54.0694 9.06987 53.5469 10.2543 53.5469 10.7451C53.5471 11.3874 54.6426 13.2295 55.0244 13.2295C55.4513 13.2292 56.5855 11.4059 56.5859 10.7197C56.5859 10.3935 56.3001 9.69504 55.9502 9.16797Z" fill="var(--fill-0, black)"/>
</g>
</svg>
