<svg preserveAspectRatio="xMidYMid meet" width="100%" height="100%" overflow="visible" style="display: block;" viewBox="0 0 76.2255 37.9537" fill="none" xmlns="http://www.w3.org/2000/svg">
<g id="Group 2147233208">
<path id="Vector" d="M0.0306506 0.00547159C0.488926 0.0679648 2.38597 0.0303561 2.95469 0.0300319L9.09349 0.0296262L30.0481 0.0296658L61.0602 0.0297895L70.944 0.03068L74.2596 0.0308012C74.8646 0.0295043 75.6314 0.0441343 76.2255 0C76.1805 0.482721 76.2032 1.34547 76.2032 1.84363L76.2041 5.192V15.7721L76.2028 30.504L76.2024 35.3077C76.2024 36.1389 76.1757 37.1343 76.2178 37.9537C75.5856 37.863 73.7226 37.9063 72.9671 37.9071H66.6007H44.4647L14.3639 37.9067L4.91095 37.9059L2.01583 37.9063C1.35881 37.9063 0.650022 37.8889 0 37.9493C0.0665054 36.9422 0.0207781 35.4459 0.0209727 34.4003L0.021289 27.74L0.0190924 7.01318L0.0169484 1.86333C0.0164662 1.59443 -0.0157046 0.163974 0.0306506 0.00547159Z" fill="var(--fill-0, black)"/>
<path id="Vector_2" d="M1.13023 19.4453C2.18649 19.4822 3.40718 19.4554 4.4775 19.4559H10.6385H29.2941L75.0899 19.4473C75.0782 25.203 75.1442 31.0187 75.081 36.7675C74.0427 36.7286 72.8293 36.7578 71.7756 36.7578H65.6539H47.045L17.0134 36.7582L1.12954 36.7675L1.125 29.783L1.13023 19.4453Z" fill="var(--fill-0, white)"/>
<path id="Vector_3" d="M31.4849 22.7813L33.5092 22.7764C34.7978 22.7736 35.7121 22.6881 36.7103 23.6705C37.9244 24.866 37.9123 26.9224 36.7052 28.1167C35.6839 29.1275 34.5319 29.0298 33.2014 29.0258L32.4171 29.0225L32.416 33.361L31.4844 33.3597L31.4849 22.7813Z" fill="var(--fill-0, black)"/>
<path id="Vector_4" d="M32.4219 23.6662C33.545 23.6852 35.003 23.4644 35.8854 24.1817C36.3482 24.5614 36.6384 25.1114 36.6902 25.708C36.7468 26.3742 36.4845 26.9331 36.0633 27.4215C35.1548 28.3199 33.6788 28.0926 32.4233 28.0857L32.4219 23.6662Z" fill="var(--fill-0, white)"/>
<path id="Vector_5" d="M25.3406 22.3516C25.4818 22.4468 26.809 25.8458 27.0147 26.3557L29.8324 33.3584C29.4992 33.3564 29.1591 33.3616 28.8253 33.3632C28.4863 32.3505 27.8115 30.8777 27.4051 29.8313L25.4694 29.8329L23.3313 29.8313C22.9217 31.0037 22.3451 32.1928 21.9373 33.3624C21.6149 33.3491 21.2331 33.3584 20.9062 33.358C22.3719 29.7425 23.9486 25.9804 25.3406 22.3516Z" fill="var(--fill-0, black)"/>
<path id="Vector_6" d="M25.3417 24.8672C25.499 25.0017 26.8146 28.3752 27.0306 28.8952L25.4297 28.9013L23.7188 28.8984C23.9074 28.5061 24.1597 27.8208 24.3292 27.4001C24.6741 26.5588 25.0117 25.7142 25.3417 24.8672Z" fill="var(--fill-0, white)"/>
<path id="Vector_7" d="M53.7208 22.3516C53.7768 22.3856 53.812 22.4265 53.8367 22.4885C55.2775 26.1109 56.8281 29.7186 58.2246 33.3555C57.8923 33.3507 57.5495 33.3588 57.2163 33.362C56.8654 32.3351 56.2149 30.8822 55.8027 29.8309C55.1515 29.8236 54.488 29.8297 53.8355 29.8297L51.7338 29.824C51.2957 30.9267 50.7129 32.2593 50.3324 33.3592C49.9956 33.3495 49.6357 33.3547 49.2969 33.3535L52.3243 25.8564C52.7644 24.7666 53.3403 23.4426 53.7208 22.3516Z" fill="var(--fill-0, black)"/>
<path id="Vector_8" d="M53.7287 24.8672C53.8754 24.9709 55.2517 28.483 55.4162 28.8903C54.9133 28.9041 54.3803 28.8972 53.875 28.8988L52.125 28.8976C52.6247 27.5529 53.2391 26.2119 53.7287 24.8672Z" fill="var(--fill-0, white)"/>
<path id="Vector_9" d="M16.2227 22.7115C17.3903 22.5591 18.5677 22.9749 19.5719 23.5261C19.5675 23.9111 19.5682 24.2965 19.5742 24.6815C19.4638 24.6045 19.3526 24.5283 19.2407 24.4529C18.1744 23.7401 17.0085 23.4499 15.7384 23.7101C14.5421 23.9524 13.495 24.6685 12.8356 25.6955C12.1894 26.6933 11.9684 27.9079 12.2218 29.0694C12.4781 30.267 13.2097 31.3089 14.249 31.9574C15.3961 32.6763 16.5487 32.7764 17.8375 32.481C18.523 32.2694 19.0103 32.0141 19.5721 31.5655C19.5634 31.9631 19.5722 32.3554 19.5791 32.7521C18.7973 33.1635 18.2097 33.418 17.3188 33.5238C15.8442 33.6988 14.3958 33.33 13.2308 32.393C12.0958 31.4942 11.3709 30.1762 11.2199 28.7363C10.8924 25.5638 13.0814 23.0264 16.2227 22.7115Z" fill="var(--fill-0, black)"/>
<path id="Vector_10" d="M42.831 22.9465L50.2467 22.9453L50.2483 23.8406L47.0057 23.8373L47.0053 30.0992L47.0049 33.3244L46.0707 33.3215L46.0719 23.8385L42.8281 23.8418L42.831 22.9465Z" fill="var(--fill-0, black)"/>
<path id="Vector_11" d="M59.8552 22.9453L60.8299 22.9461L60.8271 32.346L65.4488 32.3464L65.45 33.2822L59.8516 33.2798L59.8552 22.9453Z" fill="var(--fill-0, black)"/>
<path id="Vector_12" d="M39.9157 22.8984L40.8458 22.8992L40.8454 33.3569L39.9141 33.3557L39.9157 22.8984Z" fill="var(--fill-0, black)"/>
<path id="Vector_13" d="M51.7162 2.97842C55.4679 2.6568 58.7692 5.43957 59.0869 9.19167C59.4051 12.9438 56.6188 16.2423 52.8664 16.5565C49.1192 16.8703 45.8264 14.089 45.5091 10.3421C45.1917 6.59524 47.9695 3.29956 51.7162 2.97842Z" fill="var(--fill-0, #FEFEFE)"/>
<path id="Vector_14" d="M52.0663 4.12196C55.1804 3.99511 57.8082 6.41443 57.9391 9.52814C58.0696 12.6418 55.6538 15.2729 52.5401 15.4075C49.4211 15.5424 46.7844 13.1211 46.6535 10.0019C46.5226 6.88276 48.9469 4.24901 52.0663 4.12196Z" fill="var(--fill-0, black)"/>
<path id="Vector_15" d="M51.937 7.14157C53.3826 6.94522 54.7139 7.95621 54.9129 9.40117C55.1119 10.8461 54.1032 12.1794 52.6584 12.3809C51.2103 12.5831 49.8729 11.5713 49.6735 10.1226C49.4737 8.67399 50.4882 7.33845 51.937 7.14157Z" fill="var(--fill-0, #FEFEFE)"/>
<path id="Vector_16" d="M52.2196 8.2908C53.0326 8.25173 53.724 8.87739 53.7665 9.69025C53.8087 10.5031 53.1858 11.1971 52.3728 11.2424C51.5557 11.2881 50.8571 10.6609 50.8145 9.8436C50.7723 9.02629 51.4021 8.33007 52.2196 8.2908Z" fill="var(--fill-0, black)"/>
<path id="Vector_17" d="M19.9957 2.53906C20.1888 2.7092 25.0152 14.8144 25.5902 16.2997C25.1823 16.2921 24.7543 16.3009 24.3448 16.303C24.3027 16.1499 24.2239 15.9848 24.1655 15.8352C23.6495 14.5144 23.0736 13.2086 22.5745 11.882L20.078 11.8812L17.4759 11.8768C16.9443 13.3488 16.2566 14.8321 15.713 16.3103C15.3145 16.2878 14.8563 16.2975 14.4531 16.2968C16.2256 11.7288 18.1685 7.09758 19.9957 2.53906Z" fill="var(--fill-0, #FEFEFE)"/>
<path id="Vector_18" d="M19.9915 5.625C20.1434 5.77228 21.8819 10.2025 22.0932 10.7376L20.1168 10.7406L17.9453 10.7413C18.6127 9.05876 19.3676 7.31041 19.9915 5.625Z" fill="var(--fill-0, black)"/>
<path id="Vector_19" d="M62.429 3.02344C62.5749 3.16087 63.0969 3.82523 63.2375 3.99889L64.9202 6.08196L70.716 13.2305C70.6824 12.1431 70.7112 10.9169 70.7112 9.8187L70.7116 3.19848L71.8484 3.19852L71.8459 12.2776L71.8512 14.969C71.8524 15.3676 71.8727 16.0907 71.8277 16.4624C71.362 15.9579 70.6715 15.0485 70.2261 14.4981L67.1586 10.7085L64.8072 7.80477C64.444 7.35601 63.8321 6.64521 63.5447 6.18895L63.5387 16.2918L62.4002 16.2887V7.01291L62.3946 4.47958C62.3933 4.11334 62.3751 3.35491 62.429 3.02344Z" fill="var(--fill-0, #FEFEFE)"/>
<path id="Vector_20" d="M8.27707 3.01151C9.49333 2.86809 10.8966 3.53776 11.5887 4.53194C11.7884 4.81883 11.9209 5.08116 12.0741 5.39586C11.746 5.53353 11.4204 5.67696 11.0974 5.8261C8.39358 1.77267 3.92937 6.39518 7.12423 8.57466C8.32874 9.39635 10.9036 9.11157 11.9606 10.9321C13.9221 14.31 10.5841 17.1651 7.17407 16.4557C5.60218 16.1024 4.60253 15.0021 4.02344 13.5553C4.35341 13.4465 4.77157 13.2783 5.0872 13.1398C5.65564 14.521 6.97407 15.5235 8.50228 15.4268C9.94416 15.3355 11.6204 14.0859 11.3526 12.4926C10.9163 9.93796 7.67754 10.6911 6.14018 9.38022C3.49683 7.12617 4.95557 3.44309 8.27707 3.01151Z" fill="var(--fill-0, #FEFEFE)"/>
<path id="Vector_21" d="M38.3016 3.01466C38.82 2.95755 39.4741 3.07261 39.9551 3.26751C41.0777 3.72239 41.6147 4.3585 42.0881 5.42482C41.7703 5.52281 41.4032 5.69165 41.1045 5.83605C41.0631 5.76383 41.0194 5.69315 40.9732 5.62417C40.5772 5.03494 39.8741 4.40511 39.177 4.28418C36.0402 3.73989 34.6072 7.99344 37.9985 8.93254C39.4984 9.3479 41.0023 9.5383 41.9499 10.8988C42.465 11.6447 42.6652 12.564 42.5063 13.4566C42.0865 15.7897 39.5166 16.8904 37.3439 16.4893C35.7209 16.1896 34.6387 15.0467 34.0391 13.5688C34.4009 13.4299 34.7615 13.288 35.1211 13.1433C35.3547 13.7613 35.7534 14.3033 36.2738 14.7104C36.9431 15.2328 37.7512 15.4989 38.6311 15.4157C40.0216 15.2844 41.6184 14.071 41.3699 12.5126C40.933 9.91914 37.7318 10.7043 36.1684 9.3918C33.5225 7.17045 34.9734 3.41786 38.3016 3.01466Z" fill="var(--fill-0, #FEFEFE)"/>
<path id="Vector_22" d="M28.6026 3.24377L29.7427 3.24219L29.7416 16.2562L28.6016 16.2507L28.6026 3.24377Z" fill="var(--fill-0, #FEFEFE)"/>
</g>
</svg>
