<svg preserveAspectRatio="none" width="100%" height="100%" overflow="visible" style="display: block;" viewBox="0 0 83 83" fill="none" xmlns="http://www.w3.org/2000/svg">
<g id="image 5135 [Vectorized]">
<path id="Vector" d="M3.76503 23.1852C4.2233 23.2477 6.12035 23.21 6.68907 23.2097L12.8279 23.2093L33.7825 23.2094L64.7946 23.2095L74.6784 23.2104L77.9939 23.2105C78.599 23.2092 79.3658 23.2238 79.9599 23.1797C79.9149 23.6624 79.9376 24.5252 79.9376 25.0233L79.9384 28.3717V38.9518L79.9372 53.6837L79.9368 58.4874C79.9368 59.3186 79.9101 60.314 79.9522 61.1334C79.32 61.0426 77.4569 61.086 76.7015 61.0868H70.3351H48.199L18.0983 61.0864L8.64532 61.0856L5.75021 61.086C5.09318 61.086 4.3844 61.0686 3.73438 61.129C3.80088 60.1219 3.75515 58.6256 3.75535 57.58L3.75566 50.9197L3.75347 30.1929L3.75132 25.043C3.75084 24.7741 3.71867 23.3437 3.76503 23.1852Z" fill="var(--fill-0, black)"/>
<path id="Vector_2" d="M4.8646 42.625C5.92087 42.6619 7.14155 42.6351 8.21188 42.6355H14.3728H33.0284L78.8243 42.627C78.8125 48.3827 78.8786 54.1984 78.8154 59.9472C77.7771 59.9083 76.5637 59.9375 75.51 59.9375H69.3883H50.7794L20.7478 59.9379L4.86391 59.9472L4.85938 52.9627L4.8646 42.625Z" fill="var(--fill-0, white)"/>
<path id="Vector_3" d="M35.2192 45.961L37.2435 45.9561C38.5321 45.9533 39.4465 45.8678 40.4447 46.8502C41.6588 48.0457 41.6466 50.1021 40.4396 51.2964C39.4183 52.3072 38.2663 52.2095 36.9357 52.2054L36.1515 52.2022L36.1504 56.5407L35.2188 56.5394L35.2192 45.961Z" fill="var(--fill-0, black)"/>
<path id="Vector_4" d="M36.1562 46.8459C37.2794 46.8649 38.7374 46.644 39.6198 47.3614C40.0826 47.7411 40.3728 48.2911 40.4246 48.8876C40.4811 49.5539 40.2189 50.1128 39.7977 50.6011C38.8891 51.4996 37.4132 51.2723 36.1576 51.2654L36.1562 46.8459Z" fill="var(--fill-0, white)"/>
<path id="Vector_5" d="M29.075 45.5312C29.2162 45.6265 30.5434 49.0255 30.7491 49.5354L33.5668 56.5381C33.2336 56.536 32.8935 56.5413 32.5596 56.5429C32.2207 55.5302 31.5459 54.0574 31.1395 53.011L29.2038 53.0126L27.0657 53.011C26.6561 54.1834 26.0795 55.3725 25.6716 56.5421C25.3493 56.5288 24.9675 56.5381 24.6406 56.5377C26.1063 52.9222 27.6829 49.1601 29.075 45.5312Z" fill="var(--fill-0, black)"/>
<path id="Vector_6" d="M29.0761 48.0469C29.2333 48.1814 30.5489 51.5549 30.7649 52.0749L29.1641 52.081L27.4531 52.0781C27.6417 51.6858 27.8941 51.0005 28.0635 50.5798C28.4085 49.7385 28.746 48.8939 29.0761 48.0469Z" fill="var(--fill-0, white)"/>
<path id="Vector_7" d="M57.4552 45.5312C57.5111 45.5653 57.5464 45.6062 57.5711 45.6682C59.0119 49.2906 60.5624 52.8983 61.959 56.5352C61.6267 56.5304 61.2838 56.5385 60.9507 56.5417C60.5997 55.5148 59.9493 54.0619 59.5371 53.0106C58.8858 53.0033 58.2224 53.0094 57.5699 53.0094L55.4682 53.0037C55.0301 54.1064 54.4473 55.439 54.0667 56.5389C53.7299 56.5292 53.3701 56.5344 53.0312 56.5332L56.0586 49.0361C56.4988 47.9463 57.0747 46.6222 57.4552 45.5312Z" fill="var(--fill-0, black)"/>
<path id="Vector_8" d="M57.463 48.0469C57.6098 48.1506 58.9861 51.6627 59.1506 52.07C58.6477 52.0838 58.1147 52.0769 57.6093 52.0785L55.8594 52.0773C56.3591 50.7326 56.9735 49.3916 57.463 48.0469Z" fill="var(--fill-0, white)"/>
<path id="Vector_9" d="M19.9571 45.8912C21.1247 45.7388 22.3021 46.1546 23.3062 46.7058C23.3018 47.0908 23.3026 47.4762 23.3086 47.8612C23.1982 47.7842 23.087 47.708 22.9751 47.6326C21.9087 46.9197 20.7429 46.6296 19.4727 46.8898C18.2765 47.1321 17.2294 47.8482 16.57 48.8752C15.9238 49.873 15.7028 51.0876 15.9562 52.2491C16.2125 53.4467 16.9441 54.4886 17.9834 55.1371C19.1304 55.856 20.2831 55.9561 21.5719 55.6607C22.2574 55.4491 22.7447 55.1938 23.3065 54.7452C23.2977 55.1427 23.3066 55.535 23.3135 55.9318C22.5316 56.3432 21.9441 56.5977 21.0532 56.7034C19.5786 56.8785 18.1302 56.5097 16.9652 55.5727C15.8302 54.6738 15.1053 53.3559 14.9543 51.916C14.6268 48.7435 16.8158 46.2061 19.9571 45.8912Z" fill="var(--fill-0, black)"/>
<path id="Vector_10" d="M46.5653 46.1262L53.981 46.125L53.9826 47.0202L50.7401 47.017L50.7397 53.2789L50.7393 56.5041L49.8051 56.5012L49.8063 47.0182L46.5625 47.0215L46.5653 46.1262Z" fill="var(--fill-0, black)"/>
<path id="Vector_11" d="M63.5896 46.125L64.5643 46.1258L64.5614 55.5257L69.1832 55.5261L69.1844 56.4619L63.5859 56.4595L63.5896 46.125Z" fill="var(--fill-0, black)"/>
<path id="Vector_12" d="M43.6501 46.0781L44.5802 46.0789L44.5798 56.5366L43.6484 56.5354L43.6501 46.0781Z" fill="var(--fill-0, black)"/>
<path id="Vector_13" d="M55.4506 26.1581C59.2022 25.8365 62.5036 28.6193 62.8213 32.3714C63.1395 36.1235 60.3532 39.422 56.6008 39.7362C52.8536 40.05 49.5608 37.2687 49.2434 33.5218C48.9261 29.7749 51.7039 26.4792 55.4506 26.1581Z" fill="var(--fill-0, #FEFEFE)"/>
<path id="Vector_14" d="M55.8007 27.3016C58.9148 27.1748 61.5426 29.5941 61.6735 32.7078C61.804 35.8215 59.3882 38.4526 56.2745 38.5872C53.1555 38.7221 50.5188 36.3008 50.3879 33.1816C50.257 30.0624 52.6813 27.4287 55.8007 27.3016Z" fill="var(--fill-0, black)"/>
<path id="Vector_15" d="M55.6714 30.3213C57.117 30.1249 58.4483 31.1359 58.6473 32.5809C58.8463 34.0258 57.8376 35.3591 56.3928 35.5606C54.9447 35.7627 53.6073 34.751 53.4079 33.3023C53.2081 31.8537 54.2225 30.5181 55.6714 30.3213Z" fill="var(--fill-0, #FEFEFE)"/>
<path id="Vector_16" d="M55.954 31.4705C56.7669 31.4314 57.4583 32.0571 57.5009 32.8699C57.543 33.6828 56.9201 34.3767 56.1071 34.4221C55.2901 34.4678 54.5914 33.8406 54.5489 33.0233C54.5067 32.206 55.1365 31.5098 55.954 31.4705Z" fill="var(--fill-0, black)"/>
<path id="Vector_17" d="M23.7301 25.7188C23.9231 25.8889 28.7496 37.9941 29.3245 39.4794C28.9167 39.4718 28.4887 39.4806 28.0792 39.4827C28.0371 39.3296 27.9583 39.1645 27.8999 39.0149C27.3839 37.6941 26.808 36.3883 26.3089 35.0617L23.8124 35.0609L21.2102 35.0565C20.6786 36.5284 19.991 38.0118 19.4473 39.49C19.0488 39.4675 18.5907 39.4772 18.1875 39.4765C19.96 34.9085 21.9029 30.2773 23.7301 25.7188Z" fill="var(--fill-0, #FEFEFE)"/>
<path id="Vector_18" d="M23.7259 28.8047C23.8778 28.952 25.6163 33.3822 25.8275 33.9173L23.8512 33.9203L21.6797 33.921C22.3471 32.2384 23.102 30.4901 23.7259 28.8047Z" fill="var(--fill-0, black)"/>
<path id="Vector_19" d="M66.1634 26.2031C66.3093 26.3406 66.8313 27.0049 66.9719 27.1786L68.6546 29.2616L74.4504 36.4102C74.4168 35.3228 74.4456 34.0966 74.4456 32.9984L74.446 26.3782L75.5827 26.3782L75.5803 35.4573L75.5856 38.1486C75.5868 38.5473 75.6071 39.2704 75.5621 39.6421C75.0964 39.1376 74.4058 38.2282 73.9604 37.6778L70.8929 33.8882L68.5415 30.9845C68.1784 30.5357 67.5664 29.8249 67.2791 29.3686L67.273 39.4715L66.1346 39.4684V30.1926L66.1289 27.6593C66.1277 27.293 66.1095 26.5346 66.1634 26.2031Z" fill="var(--fill-0, #FEFEFE)"/>
<path id="Vector_20" d="M12.0114 26.1912C13.2277 26.0478 14.631 26.7174 15.3231 27.7116C15.5228 27.9985 15.6553 28.2608 15.8085 28.5755C15.4804 28.7132 15.1548 28.8566 14.8317 29.0058C12.128 24.9524 7.66375 29.5749 10.8586 31.7543C12.0631 32.576 14.638 32.2913 15.695 34.1117C17.6565 37.4897 14.3185 40.3448 10.9084 39.6354C9.33656 39.2821 8.33691 38.1818 7.75781 36.735C8.08779 36.6262 8.50595 36.458 8.82157 36.3195C9.39001 37.7007 10.7084 38.7032 12.2367 38.6065C13.6785 38.5152 15.3548 37.2655 15.087 35.6723C14.6507 33.1176 11.4119 33.8708 9.87456 32.5599C7.2312 30.3059 8.68994 26.6228 12.0114 26.1912Z" fill="var(--fill-0, #FEFEFE)"/>
<path id="Vector_21" d="M42.036 26.1943C42.5543 26.1372 43.2084 26.2523 43.6895 26.4472C44.8121 26.9021 45.3491 27.5382 45.8225 28.6045C45.5047 28.7025 45.1375 28.8713 44.8389 29.0157C44.7975 28.9435 44.7537 28.8728 44.7075 28.8039C44.3116 28.2146 43.6084 27.5848 42.9114 27.4639C39.7746 26.9196 38.3415 31.1731 41.7328 32.1122C43.2328 32.5276 44.7367 32.718 45.6843 34.0785C46.1994 34.8244 46.3996 35.7437 46.2407 36.6363C45.8208 38.9694 43.251 40.0701 41.0783 39.669C39.4552 39.3693 38.3731 38.2264 37.7734 36.7485C38.1352 36.6095 38.4959 36.4677 38.8555 36.323C39.0891 36.941 39.4878 37.483 40.0082 37.8901C40.6775 38.4124 41.4856 38.6785 42.3655 38.5954C43.756 38.464 45.3527 37.2507 45.1043 35.6923C44.6674 33.0988 41.4662 33.884 39.9027 32.5715C37.2569 30.3501 38.7078 26.5976 42.036 26.1943Z" fill="var(--fill-0, #FEFEFE)"/>
<path id="Vector_22" d="M32.337 26.4235L33.4771 26.4219L33.476 39.4359L32.3359 39.4304L32.337 26.4235Z" fill="var(--fill-0, #FEFEFE)"/>
</g>
</svg>
